<?xml version="1.0" encoding="utf-8"?>
<!-- Generator: Adobe Illustrator 16.0.0, SVG Export Plug-In . SVG Version: 6.00 Build 0)  -->
<!DOCTYPE svg PUBLIC "-//W3C//DTD SVG 1.1//EN" "http://www.w3.org/Graphics/SVG/1.1/DTD/svg11.dtd">
<svg version="1.1" id="Layer_1" xmlns="http://www.w3.org/2000/svg" xmlns:xlink="http://www.w3.org/1999/xlink" x="0px" y="0px"
	 width="47.844px" height="48.883px" viewBox="0 0 47.844 48.883" enable-background="new 0 0 47.844 48.883" xml:space="preserve">
<g>
	<defs>
		<rect id="SVGID_1_" y="0" width="47.844" height="48.883"/>
	</defs>
	<clipPath id="SVGID_2_">
		<use xlink:href="#SVGID_1_"  overflow="visible"/>
	</clipPath>
	<path clip-path="url(#SVGID_2_)" fill="#F4FAF8" d="M45.606,33.882V43.8h-0.004l0.004,0.902c-9.623,4.855-25.598,6.24-34.813,0.025
		C5.213,40.964-0.289,33.481,0.011,24.015C0.297,15.024,6.127,6.972,14.146,2.92c9.217-4.663,23.129-3.782,31.24,2.934l-4.778,4.873
		l-3.097,0.879l1.647-2.995c-2.366-2.377-5.08-4.101-8.069-5.054c-4.768-1.528-9.167-0.684-12.832,1.108
		C10.752,8.342,6.312,17.247,8.035,26.664c1.818,9.922,9.493,17.879,19.562,18.715c2.968,0.251,6.216,0.102,9.092-0.654
		c2.044-0.66,2.028-0.86,2.028-2.099v-8.743l-10.082,0.3l5.191-2.924h14.018L45.606,33.882z"/>
</g>
</svg>
