<?xml version="1.0" encoding="utf-8"?>
<!-- Generator: Adobe Illustrator 16.0.0, SVG Export Plug-In . SVG Version: 6.00 Build 0)  -->
<!DOCTYPE svg PUBLIC "-//W3C//DTD SVG 1.1//EN" "http://www.w3.org/Graphics/SVG/1.1/DTD/svg11.dtd">
<svg version="1.1" id="Layer_1" xmlns="http://www.w3.org/2000/svg" xmlns:xlink="http://www.w3.org/1999/xlink" x="0px" y="0px"
	 width="49.425px" height="49.739px" viewBox="0 0 49.425 49.739" enable-background="new 0 0 49.425 49.739" xml:space="preserve">
<g>
	<defs>
		<rect id="SVGID_1_" y="0" width="49.425" height="49.739"/>
	</defs>
	<clipPath id="SVGID_2_">
		<use xlink:href="#SVGID_1_"  overflow="visible"/>
	</clipPath>
	<path clip-path="url(#SVGID_2_)" fill="#F4FAF8" d="M26.577,22.435v-0.078c-0.016,0.026-0.033,0.052-0.05,0.078H26.577z"/>
	<path clip-path="url(#SVGID_2_)" fill="#F4FAF8" d="M45.771,0H3.651C1.635,0,0,1.596,0,3.563v42.612
		c0,1.966,1.635,3.563,3.651,3.563h42.12c2.018,0,3.653-1.598,3.653-3.563V3.563C49.425,1.596,47.789,0,45.771,0 M14.981,41.637
		H7.517V19.178h7.465V41.637z M11.25,16.111h-0.05c-2.505,0-4.124-1.725-4.124-3.881c0-2.202,1.67-3.88,4.222-3.88
		c2.554,0,4.126,1.678,4.176,3.88C15.474,14.386,13.852,16.111,11.25,16.111 M41.899,41.637h-7.464V29.62
		c0-3.019-1.08-5.079-3.782-5.079c-2.062,0-3.29,1.389-3.831,2.731c-0.197,0.48-0.245,1.15-0.245,1.821v12.543h-7.465
		c0,0,0.098-20.353,0-22.459h7.465v3.179c0.992-1.529,2.767-3.709,6.729-3.709c4.911,0,8.593,3.211,8.593,10.111V41.637z"/>
</g>
</svg>
