<?xml version="1.0" encoding="utf-8"?>
<!-- Generator: Adobe Illustrator 16.0.0, SVG Export Plug-In . SVG Version: 6.00 Build 0)  -->
<!DOCTYPE svg PUBLIC "-//W3C//DTD SVG 1.1//EN" "http://www.w3.org/Graphics/SVG/1.1/DTD/svg11.dtd">
<svg version="1.1" id="Layer_1" xmlns="http://www.w3.org/2000/svg" xmlns:xlink="http://www.w3.org/1999/xlink" x="0px" y="0px"
	 width="49.263px" height="40.036px" viewBox="0 0 49.263 40.036" enable-background="new 0 0 49.263 40.036" xml:space="preserve">
<g>
	<defs>
		<rect id="SVGID_1_" y="0" width="49.263" height="40.036"/>
	</defs>
	<clipPath id="SVGID_2_">
		<use xlink:href="#SVGID_1_"  overflow="visible"/>
	</clipPath>
	<path clip-path="url(#SVGID_2_)" fill="#F4FAF8" d="M49.263,4.739c-1.811,0.805-3.76,1.348-5.805,1.591
		c2.087-1.25,3.689-3.23,4.444-5.592c-1.953,1.159-4.115,2-6.418,2.454C39.641,1.228,37.014,0,34.107,0C28.526,0,24,4.526,24,10.107
		c0,0.792,0.09,1.563,0.262,2.303C15.862,11.989,8.414,7.966,3.43,1.85C2.56,3.343,2.061,5.078,2.061,6.931
		c0,3.507,1.785,6.6,4.496,8.413c-1.656-0.053-3.215-0.507-4.577-1.265c-0.001,0.042-0.001,0.085-0.001,0.128
		c0,4.896,3.484,8.981,8.108,9.91c-0.848,0.231-1.741,0.355-2.663,0.355c-0.652,0-1.285-0.063-1.902-0.183
		c1.287,4.016,5.019,6.938,9.441,7.02c-3.459,2.711-7.817,4.326-12.552,4.326c-0.816,0-1.62-0.048-2.411-0.141
		c4.473,2.868,9.786,4.541,15.493,4.541c18.591,0,28.756-15.401,28.756-28.757c0-0.438-0.009-0.875-0.028-1.308
		C46.195,8.547,47.909,6.766,49.263,4.739"/>
</g>
</svg>
