<?xml version="1.0" encoding="utf-8"?>
<!-- Generator: Adobe Illustrator 16.0.0, SVG Export Plug-In . SVG Version: 6.00 Build 0)  -->
<!DOCTYPE svg PUBLIC "-//W3C//DTD SVG 1.1//EN" "http://www.w3.org/Graphics/SVG/1.1/DTD/svg11.dtd">
<svg version="1.1" id="Layer_1" xmlns="http://www.w3.org/2000/svg" xmlns:xlink="http://www.w3.org/1999/xlink" x="0px" y="0px"
	 width="49.047px" height="47.974px" viewBox="0 0 49.047 47.974" enable-background="new 0 0 49.047 47.974" xml:space="preserve">
<g>
	<defs>
		<rect id="SVGID_1_" y="0" width="49.047" height="47.974"/>
	</defs>
	<clipPath id="SVGID_2_">
		<use xlink:href="#SVGID_1_"  overflow="visible"/>
	</clipPath>
	<path clip-path="url(#SVGID_2_)" fill="#F4FAF8" d="M40.088,22.85H8.959C4.011,22.85,0,26.865,0,31.813v7.201
		c0,4.946,4.011,8.96,8.959,8.96h31.128c4.947,0,8.959-4.014,8.959-8.96v-7.201C49.047,26.865,45.035,22.85,40.088,22.85
		 M15.5,28.457h-2.894v14.379H9.809V28.457H6.917V26.01H15.5V28.457z M23.675,42.836h-2.481v-1.359
		c-0.461,0.503-0.935,0.887-1.433,1.146c-0.495,0.271-0.974,0.397-1.441,0.397c-0.575,0-1.003-0.184-1.296-0.556
		c-0.288-0.371-0.435-0.921-0.435-1.663V30.422h2.48v9.524c0,0.293,0.054,0.505,0.153,0.635c0.108,0.136,0.279,0.198,0.511,0.198
		c0.179,0,0.412-0.086,0.692-0.26c0.281-0.176,0.536-0.397,0.769-0.668v-9.43h2.481V42.836z M32.678,40.273
		c0,0.877-0.194,1.55-0.584,2.021c-0.386,0.47-0.952,0.7-1.686,0.7c-0.488,0-0.921-0.087-1.299-0.269
		c-0.379-0.18-0.736-0.458-1.061-0.842v0.951H25.54V26.01h2.509v5.42c0.336-0.376,0.692-0.666,1.063-0.861
		c0.38-0.2,0.761-0.296,1.146-0.296c0.785,0,1.384,0.262,1.798,0.791c0.416,0.529,0.622,1.304,0.622,2.32V40.273z M41.282,36.929
		h-4.746v2.338c0,0.653,0.079,1.106,0.242,1.36c0.165,0.254,0.445,0.377,0.841,0.377c0.413,0,0.698-0.106,0.863-0.32
		c0.161-0.217,0.247-0.687,0.247-1.417v-0.565h2.553v0.637c0,1.273-0.309,2.231-0.937,2.879c-0.617,0.64-1.547,0.959-2.783,0.959
		c-1.112,0-1.989-0.34-2.626-1.022c-0.636-0.677-0.959-1.618-0.959-2.815v-5.575c0-1.073,0.353-1.956,1.056-2.634
		c0.702-0.677,1.604-1.014,2.716-1.014c1.136,0,2.009,0.313,2.619,0.94c0.609,0.629,0.914,1.529,0.914,2.707V36.929z"/>
	<path clip-path="url(#SVGID_2_)" fill="#F4FAF8" d="M37.643,32.286c-0.396,0-0.678,0.112-0.85,0.343
		c-0.175,0.218-0.257,0.592-0.257,1.113v1.254h2.193v-1.254c0-0.521-0.089-0.896-0.262-1.113
		C38.3,32.398,38.021,32.286,37.643,32.286"/>
	<path clip-path="url(#SVGID_2_)" fill="#F4FAF8" d="M29.087,32.244c-0.177,0-0.354,0.038-0.526,0.12
		c-0.173,0.079-0.343,0.209-0.512,0.379v7.734c0.2,0.199,0.397,0.354,0.588,0.441c0.192,0.085,0.389,0.133,0.6,0.133
		c0.305,0,0.527-0.088,0.67-0.266c0.141-0.175,0.214-0.457,0.214-0.854v-6.412c0-0.421-0.085-0.737-0.26-0.954
		C29.679,32.353,29.421,32.244,29.087,32.244"/>
	<polygon clip-path="url(#SVGID_2_)" fill="#F4FAF8" points="13.035,18.538 16.18,18.538 16.18,10.848 19.84,0 16.644,0 
		14.698,7.41 14.5,7.41 12.457,0 9.29,0 13.035,11.194 	"/>
	<path clip-path="url(#SVGID_2_)" fill="#F4FAF8" d="M24.101,18.883c1.27,0,2.266-0.332,2.992-0.998
		c0.721-0.67,1.083-1.582,1.083-2.753V8.068c0-1.04-0.37-1.898-1.104-2.559c-0.74-0.659-1.688-0.991-2.845-0.991
		c-1.268,0-2.281,0.314-3.032,0.941c-0.751,0.628-1.127,1.468-1.127,2.531v7.088c0,1.163,0.367,2.084,1.099,2.773
		C21.899,18.538,22.879,18.883,24.101,18.883 M22.942,7.886c0-0.297,0.107-0.537,0.316-0.725c0.217-0.184,0.493-0.274,0.833-0.274
		c0.37,0,0.668,0.09,0.896,0.274c0.228,0.188,0.341,0.428,0.341,0.725v7.451c0,0.365-0.112,0.654-0.336,0.864
		c-0.223,0.21-0.523,0.313-0.901,0.313c-0.37,0-0.654-0.099-0.853-0.309c-0.197-0.206-0.297-0.493-0.297-0.868V7.886z"/>
	<path clip-path="url(#SVGID_2_)" fill="#F4FAF8" d="M32.392,18.737c0.524,0,1.063-0.149,1.619-0.437
		c0.561-0.292,1.098-0.719,1.608-1.276v1.514h2.794V4.863h-2.794v10.381c-0.26,0.297-0.548,0.541-0.859,0.735
		c-0.316,0.192-0.576,0.287-0.781,0.287c-0.262,0-0.454-0.071-0.567-0.219c-0.116-0.144-0.181-0.377-0.181-0.699V4.863h-2.789
		v11.429c0,0.816,0.164,1.424,0.489,1.828C31.26,18.53,31.743,18.737,32.392,18.737"/>
</g>
</svg>
